<svg width="641" height="101" xmlns="http://www.w3.org/2000/svg" xmlns:xlink="http://www.w3.org/1999/xlink" overflow="hidden"><defs><clipPath id="clip0"><path d="M261 469 902 469 902 570 261 570Z" fill-rule="evenodd" clip-rule="evenodd"/></clipPath></defs><g clip-path="url(#clip0)" transform="translate(-261 -469)"><path d="M262.5 520.334C262.5 515.455 266.455 511.5 271.334 511.5L306.667 511.5C311.545 511.5 315.5 515.455 315.5 520.334L315.5 555.667C315.5 560.545 311.545 564.5 306.667 564.5L271.334 564.5C266.455 564.5 262.5 560.545 262.5 555.667Z" stroke="#FFFFFF" stroke-width="1.33333" stroke-miterlimit="8" fill="#C5E0B4" fill-rule="evenodd"/><text fill="#FFFFFF" font-family="Comic Sans MS,Comic Sans MS_MSFontService,sans-serif" font-weight="400" font-size="27" transform="translate(282.465 547)">1</text><path d="M315.5 520.334C315.5 515.455 319.455 511.5 324.334 511.5L359.667 511.5C364.545 511.5 368.5 515.455 368.5 520.334L368.5 555.667C368.5 560.545 364.545 564.5 359.667 564.5L324.334 564.5C319.455 564.5 315.5 560.545 315.5 555.667Z" stroke="#FFFFFF" stroke-width="1.33333" stroke-miterlimit="8" fill="#C5E0B4" fill-rule="evenodd"/><text fill="#FFFFFF" font-family="Comic Sans MS,Comic Sans MS_MSFontService,sans-serif" font-weight="400" font-size="27" transform="translate(333.217 547)">2</text><path d="M368.5 520.334C368.5 515.455 372.455 511.5 377.334 511.5L412.667 511.5C417.545 511.5 421.5 515.455 421.5 520.334L421.5 555.667C421.5 560.545 417.545 564.5 412.667 564.5L377.334 564.5C372.455 564.5 368.5 560.545 368.5 555.667Z" stroke="#FFFFFF" stroke-width="1.33333" stroke-miterlimit="8" fill="#C5E0B4" fill-rule="evenodd"/><text fill="#FFFFFF" font-family="Comic Sans MS,Comic Sans MS_MSFontService,sans-serif" font-weight="400" font-size="27" transform="translate(386.137 547)">3</text><path d="M421.5 520.334C421.5 515.455 425.455 511.5 430.334 511.5L465.667 511.5C470.545 511.5 474.5 515.455 474.5 520.334L474.5 555.667C474.5 560.545 470.545 564.5 465.667 564.5L430.334 564.5C425.455 564.5 421.5 560.545 421.5 555.667Z" stroke="#FFFFFF" stroke-width="1.33333" stroke-miterlimit="8" fill="#C5E0B4" fill-rule="evenodd"/><text fill="#FFFFFF" font-family="Comic Sans MS,Comic Sans MS_MSFontService,sans-serif" font-weight="400" font-size="27" transform="translate(439.056 547)">4</text><path d="M474.5 520.334C474.5 515.455 478.455 511.5 483.334 511.5L518.667 511.5C523.545 511.5 527.5 515.455 527.5 520.334L527.5 555.667C527.5 560.545 523.545 564.5 518.667 564.5L483.334 564.5C478.455 564.5 474.5 560.545 474.5 555.667Z" stroke="#FFFFFF" stroke-width="1.33333" stroke-miterlimit="8" fill="#F4B183" fill-rule="evenodd"/><text fill="#FFFFFF" font-family="Comic Sans MS,Comic Sans MS_MSFontService,sans-serif" font-weight="400" font-size="27" transform="translate(491.975 547)">5</text><path d="M527.5 520.334C527.5 515.455 531.455 511.5 536.334 511.5L571.667 511.5C576.545 511.5 580.5 515.455 580.5 520.334L580.5 555.667C580.5 560.545 576.545 564.5 571.667 564.5L536.334 564.5C531.455 564.5 527.5 560.545 527.5 555.667Z" stroke="#FFFFFF" stroke-width="1.33333" stroke-miterlimit="8" fill="#F4B183" fill-rule="evenodd"/><text fill="#FFFFFF" font-family="Comic Sans MS,Comic Sans MS_MSFontService,sans-serif" font-weight="400" font-size="27" transform="translate(544.895 547)">6</text><path d="M580.5 520.167C580.5 515.38 584.38 511.5 589.167 511.5L623.833 511.5C628.62 511.5 632.5 515.38 632.5 520.167L632.5 555.833C632.5 560.62 628.62 564.5 623.833 564.5L589.167 564.5C584.38 564.5 580.5 560.62 580.5 555.833Z" stroke="#FFFFFF" stroke-width="1.33333" stroke-miterlimit="8" fill="#F4B183" fill-rule="evenodd"/><text fill="#FFFFFF" font-family="Comic Sans MS,Comic Sans MS_MSFontService,sans-serif" font-weight="400" font-size="27" transform="translate(597.814 547)">7</text><path d="M632.5 520.334C632.5 515.455 636.455 511.5 641.334 511.5L676.667 511.5C681.545 511.5 685.5 515.455 685.5 520.334L685.5 555.667C685.5 560.545 681.545 564.5 676.667 564.5L641.334 564.5C636.455 564.5 632.5 560.545 632.5 555.667Z" stroke="#FFFFFF" stroke-width="1.33333" stroke-miterlimit="8" fill="#F4B183" fill-rule="evenodd"/><text fill="#FFFFFF" font-family="Comic Sans MS,Comic Sans MS_MSFontService,sans-serif" font-weight="400" font-size="27" transform="translate(650.733 547)">8</text><path d="M685.5 520.334C685.5 515.455 689.455 511.5 694.334 511.5L729.667 511.5C734.545 511.5 738.5 515.455 738.5 520.334L738.5 555.667C738.5 560.545 734.545 564.5 729.667 564.5L694.334 564.5C689.455 564.5 685.5 560.545 685.5 555.667Z" stroke="#FFFFFF" stroke-width="1.33333" stroke-miterlimit="8" fill="#9DC3E6" fill-rule="evenodd"/><text fill="#FFFFFF" font-family="Comic Sans MS,Comic Sans MS_MSFontService,sans-serif" font-weight="400" font-size="27" transform="translate(703.652 547)">9</text><path d="M738.5 520.334C738.5 515.455 742.455 511.5 747.334 511.5L782.667 511.5C787.545 511.5 791.5 515.455 791.5 520.334L791.5 555.667C791.5 560.545 787.545 564.5 782.667 564.5L747.334 564.5C742.455 564.5 738.5 560.545 738.5 555.667Z" stroke="#FFFFFF" stroke-width="1.33333" stroke-miterlimit="8" fill="#9DC3E6" fill-rule="evenodd"/><text fill="#FFFFFF" font-family="Comic Sans MS,Comic Sans MS_MSFontService,sans-serif" font-weight="400" font-size="27" transform="translate(750.572 547)">10</text><path d="M791.5 520.334C791.5 515.455 795.455 511.5 800.334 511.5L835.667 511.5C840.545 511.5 844.5 515.455 844.5 520.334L844.5 555.667C844.5 560.545 840.545 564.5 835.667 564.5L800.334 564.5C795.455 564.5 791.5 560.545 791.5 555.667Z" stroke="#FFFFFF" stroke-width="1.33333" stroke-miterlimit="8" fill="#9DC3E6" fill-rule="evenodd"/><text fill="#FFFFFF" font-family="Comic Sans MS,Comic Sans MS_MSFontService,sans-serif" font-weight="400" font-size="27" transform="translate(805.657 547)">11</text><path d="M844.5 520.334C844.5 515.455 848.455 511.5 853.334 511.5L888.667 511.5C893.545 511.5 897.5 515.455 897.5 520.334L897.5 555.667C897.5 560.545 893.545 564.5 888.667 564.5L853.334 564.5C848.455 564.5 844.5 560.545 844.5 555.667Z" stroke="#FFFFFF" stroke-width="1.33333" stroke-miterlimit="8" fill="#9DC3E6" fill-rule="evenodd"/><text fill="#FFFFFF" font-family="Comic Sans MS,Comic Sans MS_MSFontService,sans-serif" font-weight="400" font-size="27" transform="translate(856.41 547)">12</text><path d="M289 470 289 478 287 478 287 470ZM289 484 289 492 287 492 287 484ZM289 498 289 504.764 287 504.764 287 498ZM292 503.43 288 511.43 284 503.43Z"/><path d="M342 470 342 504.764 340 504.764 340 470ZM345 503.43 341 511.43 337 503.43Z" fill="#FF0000"/><path d="M0.999998-0.00199683 1.06942 34.7617-0.930581 34.7657-0.999998 0.00199683ZM4.06675 33.4224 0.0827297 41.4303-3.93324 33.4383Z" fill="#8FAADC" transform="matrix(-4.37114e-08 1 1 4.37114e-08 294 490)"/></g></svg>