<svg width="641" height="61" xmlns="http://www.w3.org/2000/svg" xmlns:xlink="http://www.w3.org/1999/xlink" overflow="hidden"><defs><clipPath id="clip0"><path d="M261 609 902 609 902 670 261 670Z" fill-rule="evenodd" clip-rule="evenodd"/></clipPath></defs><g clip-path="url(#clip0)" transform="translate(-261 -609)"><path d="M262.5 620.334C262.5 615.455 266.455 611.5 271.334 611.5L306.667 611.5C311.545 611.5 315.5 615.455 315.5 620.334L315.5 655.667C315.5 660.545 311.545 664.5 306.667 664.5L271.334 664.5C266.455 664.5 262.5 660.545 262.5 655.667Z" stroke="#FFFFFF" stroke-width="1.33333" stroke-miterlimit="8" fill="#C5E0B4" fill-rule="evenodd"/><text fill="#FFFFFF" font-family="Comic Sans MS,Comic Sans MS_MSFontService,sans-serif" font-weight="400" font-size="27" transform="translate(282.465 646)">1</text><path d="M421.5 620.334C421.5 615.455 425.455 611.5 430.334 611.5L465.667 611.5C470.545 611.5 474.5 615.455 474.5 620.334L474.5 655.667C474.5 660.545 470.545 664.5 465.667 664.5L430.334 664.5C425.455 664.5 421.5 660.545 421.5 655.667Z" stroke="#FFFFFF" stroke-width="1.33333" stroke-miterlimit="8" fill="#C5E0B4" fill-rule="evenodd"/><text fill="#FFFFFF" font-family="Comic Sans MS,Comic Sans MS_MSFontService,sans-serif" font-weight="400" font-size="27" transform="translate(439.056 646)">2</text><path d="M580.5 620.167C580.5 615.38 584.38 611.5 589.167 611.5L623.833 611.5C628.62 611.5 632.5 615.38 632.5 620.167L632.5 655.833C632.5 660.62 628.62 664.5 623.833 664.5L589.167 664.5C584.38 664.5 580.5 660.62 580.5 655.833Z" stroke="#FFFFFF" stroke-width="1.33333" stroke-miterlimit="8" fill="#C5E0B4" fill-rule="evenodd"/><text fill="#FFFFFF" font-family="Comic Sans MS,Comic Sans MS_MSFontService,sans-serif" font-weight="400" font-size="27" transform="translate(597.814 646)">3</text><path d="M738.5 620.334C738.5 615.455 742.455 611.5 747.334 611.5L782.667 611.5C787.545 611.5 791.5 615.455 791.5 620.334L791.5 655.667C791.5 660.545 787.545 664.5 782.667 664.5L747.334 664.5C742.455 664.5 738.5 660.545 738.5 655.667Z" stroke="#FFFFFF" stroke-width="1.33333" stroke-miterlimit="8" fill="#C5E0B4" fill-rule="evenodd"/><text fill="#FFFFFF" font-family="Comic Sans MS,Comic Sans MS_MSFontService,sans-serif" font-weight="400" font-size="27" transform="translate(756.572 646)">4</text><path d="M315.5 620.334C315.5 615.455 319.455 611.5 324.334 611.5L359.667 611.5C364.545 611.5 368.5 615.455 368.5 620.334L368.5 655.667C368.5 660.545 364.545 664.5 359.667 664.5L324.334 664.5C319.455 664.5 315.5 660.545 315.5 655.667Z" stroke="#FFFFFF" stroke-width="1.33333" stroke-miterlimit="8" fill="#F4B183" fill-rule="evenodd"/><text fill="#FFFFFF" font-family="Comic Sans MS,Comic Sans MS_MSFontService,sans-serif" font-weight="400" font-size="27" transform="translate(333.217 646)">5</text><path d="M474.5 620.334C474.5 615.455 478.455 611.5 483.334 611.5L518.667 611.5C523.545 611.5 527.5 615.455 527.5 620.334L527.5 655.667C527.5 660.545 523.545 664.5 518.667 664.5L483.334 664.5C478.455 664.5 474.5 660.545 474.5 655.667Z" stroke="#FFFFFF" stroke-width="1.33333" stroke-miterlimit="8" fill="#F4B183" fill-rule="evenodd"/><text fill="#FFFFFF" font-family="Comic Sans MS,Comic Sans MS_MSFontService,sans-serif" font-weight="400" font-size="27" transform="translate(491.975 646)">6</text><path d="M632.5 620.334C632.5 615.455 636.455 611.5 641.334 611.5L676.667 611.5C681.545 611.5 685.5 615.455 685.5 620.334L685.5 655.667C685.5 660.545 681.545 664.5 676.667 664.5L641.334 664.5C636.455 664.5 632.5 660.545 632.5 655.667Z" stroke="#FFFFFF" stroke-width="1.33333" stroke-miterlimit="8" fill="#F4B183" fill-rule="evenodd"/><text fill="#FFFFFF" font-family="Comic Sans MS,Comic Sans MS_MSFontService,sans-serif" font-weight="400" font-size="27" transform="translate(650.733 646)">7</text><path d="M791.5 620.334C791.5 615.455 795.455 611.5 800.334 611.5L835.667 611.5C840.545 611.5 844.5 615.455 844.5 620.334L844.5 655.667C844.5 660.545 840.545 664.5 835.667 664.5L800.334 664.5C795.455 664.5 791.5 660.545 791.5 655.667Z" stroke="#FFFFFF" stroke-width="1.33333" stroke-miterlimit="8" fill="#F4B183" fill-rule="evenodd"/><text fill="#FFFFFF" font-family="Comic Sans MS,Comic Sans MS_MSFontService,sans-serif" font-weight="400" font-size="27" transform="translate(809.491 646)">8</text><path d="M368.5 620.334C368.5 615.455 372.455 611.5 377.334 611.5L412.667 611.5C417.545 611.5 421.5 615.455 421.5 620.334L421.5 655.667C421.5 660.545 417.545 664.5 412.667 664.5L377.334 664.5C372.455 664.5 368.5 660.545 368.5 655.667Z" stroke="#FFFFFF" stroke-width="1.33333" stroke-miterlimit="8" fill="#9DC3E6" fill-rule="evenodd"/><text fill="#FFFFFF" font-family="Comic Sans MS,Comic Sans MS_MSFontService,sans-serif" font-weight="400" font-size="27" transform="translate(386.137 646)">9</text><path d="M527.5 620.334C527.5 615.455 531.455 611.5 536.334 611.5L571.667 611.5C576.545 611.5 580.5 615.455 580.5 620.334L580.5 655.667C580.5 660.545 576.545 664.5 571.667 664.5L536.334 664.5C531.455 664.5 527.5 660.545 527.5 655.667Z" stroke="#FFFFFF" stroke-width="1.33333" stroke-miterlimit="8" fill="#9DC3E6" fill-rule="evenodd"/><text fill="#FFFFFF" font-family="Comic Sans MS,Comic Sans MS_MSFontService,sans-serif" font-weight="400" font-size="27" transform="translate(538.895 646)">10</text><path d="M685.5 620.334C685.5 615.455 689.455 611.5 694.334 611.5L729.667 611.5C734.545 611.5 738.5 615.455 738.5 620.334L738.5 655.667C738.5 660.545 734.545 664.5 729.667 664.5L694.334 664.5C689.455 664.5 685.5 660.545 685.5 655.667Z" stroke="#FFFFFF" stroke-width="1.33333" stroke-miterlimit="8" fill="#9DC3E6" fill-rule="evenodd"/><text fill="#FFFFFF" font-family="Comic Sans MS,Comic Sans MS_MSFontService,sans-serif" font-weight="400" font-size="27" transform="translate(699.819 646)">11</text><path d="M844.5 620.334C844.5 615.455 848.455 611.5 853.334 611.5L888.667 611.5C893.545 611.5 897.5 615.455 897.5 620.334L897.5 655.667C897.5 660.545 893.545 664.5 888.667 664.5L853.334 664.5C848.455 664.5 844.5 660.545 844.5 655.667Z" stroke="#FFFFFF" stroke-width="1.33333" stroke-miterlimit="8" fill="#9DC3E6" fill-rule="evenodd"/><text fill="#FFFFFF" font-family="Comic Sans MS,Comic Sans MS_MSFontService,sans-serif" font-weight="400" font-size="27" transform="translate(856.41 646)">12</text></g></svg>