<svg width="164" height="220" xmlns="http://www.w3.org/2000/svg" xmlns:xlink="http://www.w3.org/1999/xlink" overflow="hidden"><defs><clipPath id="clip0"><path d="M638 207 802 207 802 427 638 427Z" fill-rule="evenodd" clip-rule="evenodd"/></clipPath></defs><g clip-path="url(#clip0)" transform="translate(-638 -207)"><path d="M639.5 217.334C639.5 212.455 643.455 208.5 648.334 208.5L683.667 208.5C688.545 208.5 692.5 212.455 692.5 217.334L692.5 252.667C692.5 257.545 688.545 261.5 683.667 261.5L648.334 261.5C643.455 261.5 639.5 257.545 639.5 252.667Z" stroke="#FFFFFF" stroke-width="1.33333" stroke-miterlimit="8" fill="#C5E0B4" fill-rule="evenodd"/><text fill="#FFFFFF" font-family="Comic Sans MS,Comic Sans MS_MSFontService,sans-serif" font-weight="400" font-size="27" transform="translate(659.557 244)">1</text><path d="M639.5 271.334C639.5 266.455 643.455 262.5 648.334 262.5L683.667 262.5C688.545 262.5 692.5 266.455 692.5 271.334L692.5 306.667C692.5 311.545 688.545 315.5 683.667 315.5L648.334 315.5C643.455 315.5 639.5 311.545 639.5 306.667Z" stroke="#FFFFFF" stroke-width="1.33333" stroke-miterlimit="8" fill="#C5E0B4" fill-rule="evenodd"/><text fill="#FFFFFF" font-family="Comic Sans MS,Comic Sans MS_MSFontService,sans-serif" font-weight="400" font-size="27" transform="translate(657.39 297)">2</text><path d="M639.5 324.334C639.5 319.455 643.455 315.5 648.334 315.5L683.667 315.5C688.545 315.5 692.5 319.455 692.5 324.334L692.5 359.667C692.5 364.545 688.545 368.5 683.667 368.5L648.334 368.5C643.455 368.5 639.5 364.545 639.5 359.667Z" stroke="#FFFFFF" stroke-width="1.33333" stroke-miterlimit="8" fill="#C5E0B4" fill-rule="evenodd"/><text fill="#FFFFFF" font-family="Comic Sans MS,Comic Sans MS_MSFontService,sans-serif" font-weight="400" font-size="27" transform="translate(657.39 350)">3</text><path d="M639.5 377.167C639.5 372.38 643.38 368.5 648.167 368.5L683.833 368.5C688.62 368.5 692.5 372.38 692.5 377.167L692.5 411.833C692.5 416.62 688.62 420.5 683.833 420.5L648.167 420.5C643.38 420.5 639.5 416.62 639.5 411.833Z" stroke="#FFFFFF" stroke-width="1.33333" stroke-miterlimit="8" fill="#C5E0B4" fill-rule="evenodd"/><text fill="#FFFFFF" font-family="Comic Sans MS,Comic Sans MS_MSFontService,sans-serif" font-weight="400" font-size="27" transform="translate(657.39 403)">4</text><path d="M692.5 217.334C692.5 212.455 696.455 208.5 701.334 208.5L736.667 208.5C741.545 208.5 745.5 212.455 745.5 217.334L745.5 252.667C745.5 257.545 741.545 261.5 736.667 261.5L701.334 261.5C696.455 261.5 692.5 257.545 692.5 252.667Z" stroke="#FFFFFF" stroke-width="1.33333" stroke-miterlimit="8" fill="#F4B183" fill-rule="evenodd"/><text fill="#FFFFFF" font-family="Comic Sans MS,Comic Sans MS_MSFontService,sans-serif" font-weight="400" font-size="27" transform="translate(710.31 244)">5</text><path d="M692.5 271.334C692.5 266.455 696.455 262.5 701.334 262.5L736.667 262.5C741.545 262.5 745.5 266.455 745.5 271.334L745.5 306.667C745.5 311.545 741.545 315.5 736.667 315.5L701.334 315.5C696.455 315.5 692.5 311.545 692.5 306.667Z" stroke="#FFFFFF" stroke-width="1.33333" stroke-miterlimit="8" fill="#F4B183" fill-rule="evenodd"/><text fill="#FFFFFF" font-family="Comic Sans MS,Comic Sans MS_MSFontService,sans-serif" font-weight="400" font-size="27" transform="translate(710.31 297)">6</text><path d="M692.5 324.334C692.5 319.455 696.455 315.5 701.334 315.5L736.667 315.5C741.545 315.5 745.5 319.455 745.5 324.334L745.5 359.667C745.5 364.545 741.545 368.5 736.667 368.5L701.334 368.5C696.455 368.5 692.5 364.545 692.5 359.667Z" stroke="#FFFFFF" stroke-width="1.33333" stroke-miterlimit="8" fill="#F4B183" fill-rule="evenodd"/><text fill="#FFFFFF" font-family="Comic Sans MS,Comic Sans MS_MSFontService,sans-serif" font-weight="400" font-size="27" transform="translate(710.31 350)">7</text><path d="M692.5 377.167C692.5 372.38 696.38 368.5 701.167 368.5L736.833 368.5C741.62 368.5 745.5 372.38 745.5 377.167L745.5 411.833C745.5 416.62 741.62 420.5 736.833 420.5L701.167 420.5C696.38 420.5 692.5 416.62 692.5 411.833Z" stroke="#FFFFFF" stroke-width="1.33333" stroke-miterlimit="8" fill="#F4B183" fill-rule="evenodd"/><text fill="#FFFFFF" font-family="Comic Sans MS,Comic Sans MS_MSFontService,sans-serif" font-weight="400" font-size="27" transform="translate(710.31 403)">8</text><path d="M745.5 217.334C745.5 212.455 749.455 208.5 754.334 208.5L789.667 208.5C794.545 208.5 798.5 212.455 798.5 217.334L798.5 252.667C798.5 257.545 794.545 261.5 789.667 261.5L754.334 261.5C749.455 261.5 745.5 257.545 745.5 252.667Z" stroke="#FFFFFF" stroke-width="1.33333" stroke-miterlimit="8" fill="#9DC3E6" fill-rule="evenodd"/><text fill="#FFFFFF" font-family="Comic Sans MS,Comic Sans MS_MSFontService,sans-serif" font-weight="400" font-size="27" transform="translate(763.229 244)">9</text><path d="M745.5 271.334C745.5 266.455 749.455 262.5 754.334 262.5L789.667 262.5C794.545 262.5 798.5 266.455 798.5 271.334L798.5 306.667C798.5 311.545 794.545 315.5 789.667 315.5L754.334 315.5C749.455 315.5 745.5 311.545 745.5 306.667Z" stroke="#FFFFFF" stroke-width="1.33333" stroke-miterlimit="8" fill="#9DC3E6" fill-rule="evenodd"/><text fill="#FFFFFF" font-family="Comic Sans MS,Comic Sans MS_MSFontService,sans-serif" font-weight="400" font-size="27" transform="translate(757.229 297)">10</text><path d="M745.5 324.334C745.5 319.455 749.455 315.5 754.334 315.5L789.667 315.5C794.545 315.5 798.5 319.455 798.5 324.334L798.5 359.667C798.5 364.545 794.545 368.5 789.667 368.5L754.334 368.5C749.455 368.5 745.5 364.545 745.5 359.667Z" stroke="#FFFFFF" stroke-width="1.33333" stroke-miterlimit="8" fill="#9DC3E6" fill-rule="evenodd"/><text fill="#FFFFFF" font-family="Comic Sans MS,Comic Sans MS_MSFontService,sans-serif" font-weight="400" font-size="27" transform="translate(759.395 350)">11</text><path d="M745.5 377.167C745.5 372.38 749.38 368.5 754.167 368.5L789.833 368.5C794.62 368.5 798.5 372.38 798.5 377.167L798.5 411.833C798.5 416.62 794.62 420.5 789.833 420.5L754.167 420.5C749.38 420.5 745.5 416.62 745.5 411.833Z" stroke="#FFFFFF" stroke-width="1.33333" stroke-miterlimit="8" fill="#9DC3E6" fill-rule="evenodd"/><text fill="#FFFFFF" font-family="Comic Sans MS,Comic Sans MS_MSFontService,sans-serif" font-weight="400" font-size="27" transform="translate(757.229 403)">12</text></g></svg>