<svg width="420" height="220" xmlns="http://www.w3.org/2000/svg" xmlns:xlink="http://www.w3.org/1999/xlink" overflow="hidden"><defs><clipPath id="clip0"><path d="M143 152 563 152 563 372 143 372Z" fill-rule="evenodd" clip-rule="evenodd"/></clipPath></defs><g clip-path="url(#clip0)" transform="translate(-143 -152)"><path d="M385.33 238.881 380.794 200.738 382.78 200.502 387.316 238.645ZM377.973 202.416 381 194 385.917 201.472Z" fill="#FF7171"/><text font-family="Comic Sans MS,Comic Sans MS_MSFontService,Arial" font-weight="400" font-size="24" transform="translate(306.373 184)">array<tspan x="60.2118" y="-2">[1]</tspan><tspan x="121.605" y="-1">[1]</tspan><tspan x="88.9298" y="-1">[2]</tspan></text><path d="M413.342 239.437 411.353 201.71 413.35 201.605 415.34 239.331ZM408.427 203.2 412 195 416.416 202.778Z" fill="#FF7171"/><text font-family="Comic Sans MS,Comic Sans MS_MSFontService,Arial" font-weight="400" font-size="24" transform="translate(158.207 267)">dimension <tspan x="115.833" y="0">index </tspan>i<tspan x="197.5" y="0">= </tspan><tspan x="274.698" y="-1">2</tspan><tspan x="235.523" y="0">,</tspan><tspan x="221.019" y="0">0</tspan><tspan x="250.46" y="-1">1</tspan><tspan x="261.157" y="-1">,</tspan></text><path d="M0.998745-0.0500889 2.89075 37.6754 0.893261 37.7756-0.998745 0.0500889ZM5.8202 36.1935 2.22593 44.3838-2.16976 36.5942Z" fill="#FF7171" transform="matrix(1 0 0 -1 440 239.384)"/><path d="M0.108059-0.994144 3.07637-0.671502 6.11751 0.254063 9.06637 1.69573 11.9222 3.64289 14.694 6.02794 17.324 8.85037 19.8165 12.0459 22.1195 15.6282 26.1093 23.5446 29.2154 32.3557 31.1802 41.7994 31.8738 51.5106 32.187 61.1551 32.1831 61.0939 33.0581 70.4064 33.0514 70.3517 34.3639 79.1017 34.3504 79.0297 36.1004 86.7797 36.0909 86.7413 37.0284 90.2413 37.0093 90.1781 38.0718 93.3031 38.0505 93.2464 39.1755 95.9964 39.0546 95.7811 40.5449 97.8002 38.9358 98.988 37.3716 96.8688 36.188 93.9756 35.1051 90.7906 34.1539 87.2396 32.3915 79.4345 31.0695 70.621 30.189 61.2506 29.8755 51.5949 29.8775 51.6337 29.19 42.0087 29.2085 42.1412 27.271 32.8287 27.3069 32.9575 24.2444 24.27 24.2945 24.3876 20.357 16.5751 20.4088 16.6658 18.1588 13.1658 18.2115 13.24 15.774 10.115 15.8309 10.1817 13.2684 7.43173 13.3478 7.50801 10.6603 5.19551 10.7492 5.26373 7.99916 3.38873 8.12329 3.46088 5.31079 2.08588 5.45884 2.14417 2.58384 1.26917 2.76694 1.30664-0.108059 0.994144ZM41.6395 94.6296 44.4375 103.125 35.9624 100.266Z" fill="#8FAADC" transform="matrix(-4.37114e-08 1 1 4.37114e-08 387 278)"/><path d="M0.120331-0.992734 2.30992-0.727329 4.58086 0.167286 6.78866 1.57225 8.90003 3.4197 10.8468 5.69093 12.7824 8.33624 16.2213 14.5772 19.0771 22.0022 21.291 30.2254 22.7454 39.0151 23.2484 48.0066 23.7484 56.9441 23.7377 56.8437 25.1127 65.5312 25.0906 65.4275 27.2781 73.5525 27.2421 73.4439 30.1171 80.6939 30.0671 80.5868 33.3796 86.7118 33.307 86.597 35.182 89.1595 35.1343 89.0992 37.0093 91.2867 36.787 91.0939 38.9117 92.4465 37.8376 94.1336 35.5875 92.7012 33.5907 90.3716 31.6528 87.7231 28.2797 81.4861 25.3618 74.1278 23.1456 65.8962 21.7544 57.1064 21.2516 48.1184 20.7516 39.1809 20.7634 39.2882 19.3259 30.6007 19.3469 30.6975 17.1594 22.5725 17.1917 22.6715 14.3792 15.359 14.4367 15.4826 11.0617 9.3576 11.1305 9.46551 9.25547 6.90301 9.30324 6.96329 7.42824 4.77579 7.529 4.87758 5.529 3.12758 5.65062 3.21866 3.58812 1.90616 3.75848 1.99291 1.69598 1.18041 1.94217 1.24273-0.120331 0.992734ZM38.8256 89.0979 44.4375 96.0625 35.4986 96.3733Z" fill="#8FAADC" transform="matrix(-4.37114e-08 1 1 4.37114e-08 414 278)"/><path d="M0.164399-0.986394 1.82143-0.710223 3.50466 0.167984 5.09599 1.55175 6.55549 3.34295 7.98316 5.48446 9.34402 8.01177 11.759 13.9857 13.7847 21.0123 15.3638 28.8444 16.31 37.1716 16.6865 45.7687 16.6848 45.7397 17.3098 54.3022 17.2876 54.1534 19.1626 62.4034 19.1275 62.2839 21.94 70.0339 21.883 69.9056 25.5705 76.8431 25.4936 76.7208 29.8061 82.5958 29.7162 82.4896 32.0912 84.9271 32.0114 84.8536 34.5114 86.9161 34.425 86.8523 36.9875 88.5398 36.7342 88.42 38.3046 88.9079 37.7112 90.8179 36.0057 90.288 33.2801 88.4931 30.6967 86.3618 28.2351 83.8354 23.8385 77.8458 20.084 70.7822 17.2262 62.9075 15.3206 54.523 14.6891 45.8708 14.3135 37.2938 14.3189 37.3629 13.3814 29.1129 13.3947 29.1976 11.8322 21.4476 11.8516 21.527 9.85163 14.5895 9.88539 14.6873 7.51039 8.81229 7.55703 8.9116 6.24453 6.4741 6.29295 6.5547 4.91795 4.4922 4.97476 4.56917 3.59976 2.88167 3.71882 3.00461 2.28132 1.75461 2.47493 1.88658 1.03743 1.13658 1.3356 1.23639-0.164399 0.986394ZM37.7793 85.6527 44.4375 91.625 35.6647 93.3682Z" fill="#8FAADC" transform="matrix(-4.37114e-08 1 1 4.37114e-08 440 278)"/><path d="M387.606 278.148 387.394 279.566 386.626 281.025 384.195 283.591 380.458 285.951 375.774 287.94 370.247 289.656 364.099 290.987 357.578 291.81 350.851 292.124 350.86 292.124 347.485 292.311 347.597 292.298 344.285 292.861 344.411 292.831 337.911 294.831 338.086 294.758 332.086 297.946 332.222 297.859 326.784 301.984 326.905 301.876 322.343 306.688 322.454 306.548 318.891 311.986 319.002 311.759 317.214 317.028 315.32 316.385 317.149 310.996 320.83 305.377 325.51 300.44 331.077 296.217 337.232 292.947 343.886 290.9 347.318 290.317 350.754 290.126 357.446 289.814 357.367 289.82 363.805 289.008 363.718 289.023 369.781 287.71 369.696 287.732 375.133 286.045 375.039 286.08 379.601 284.142 379.458 284.217 383.021 281.967 382.829 282.125 385.079 279.75 384.92 279.972 385.545 278.784 385.441 279.102 385.628 277.852ZM320.448 316.162 314.992 323.25 312.596 314.633Z" fill="#A9D18E"/><text font-family="Comic Sans MS,Comic Sans MS_MSFontService,Arial" font-weight="400" font-size="24" transform="translate(217.474 351)">stride=<tspan x="89.9698" y="-1">9</tspan><tspan x="110.891" y="-1">3</tspan><tspan x="132.349" y="-1">1</tspan><tspan x="80.6032" y="-1">(</tspan><tspan x="143.132" y="-1">)</tspan><tspan x="104.058" y="-1">,</tspan><tspan x="125.169" y="-1">,</tspan></text><path d="M415.357 278.141 415.092 279.997 414.393 281.882 413.232 283.727 411.685 285.476 407.676 288.709 402.545 291.531 396.498 293.95 389.765 295.791 382.601 296.933 375.239 297.373 375.264 297.371 367.952 297.996 368.099 297.973 361.037 299.66 361.173 299.617 354.548 302.242 354.673 302.182 348.736 305.557 348.872 305.464 343.872 309.526 344 309.403 340.125 313.903 340.269 313.682 338.649 317.063 336.846 316.199 338.522 312.698 342.542 308.03 347.675 303.859 353.746 300.409 360.502 297.731 367.707 296.01 375.107 295.378 382.432 294.939 382.334 294.95 389.397 293.825 389.29 293.848 395.915 292.035 395.808 292.072 401.745 289.697 401.635 289.749 406.635 286.999 406.489 287.097 410.364 283.972 410.243 284.087 411.68 282.462 411.583 282.592 412.646 280.905 412.554 281.09 413.179 279.403 413.127 279.609 413.377 277.859ZM341.958 316.398 335.992 323.063 334.24 314.291Z" fill="#A9D18E"/><path d="M441.011 278.11 440.75 280.457 440.004 282.83 438.738 285.162 437.086 287.41 432.773 291.594 427.196 295.312 420.636 298.369 413.333 300.782 405.523 302.306 397.521 302.873 389.58 303.373 389.693 303.359 382.005 304.734 382.105 304.711 374.918 306.774 375.042 306.729 368.605 309.541 368.722 309.481 363.347 312.731 363.478 312.636 359.228 316.261 359.457 315.98 358.493 317.742 356.738 316.782 357.79 314.859 362.242 311.061 367.743 307.735 374.302 304.87 381.603 302.775 389.397 301.381 397.391 300.877 397.384 300.878 405.321 300.315 405.2 300.331 412.888 298.831 412.766 298.863 419.953 296.488 419.844 296.531 426.282 293.531 426.15 293.605 431.587 289.98 431.445 290.095 435.633 286.032 435.524 286.158 437.086 284.033 437.013 284.148 438.2 281.96 438.125 282.138 438.813 279.95 438.773 280.14 439.023 277.89ZM361.815 317.636 354.954 323.375 354.48 314.443Z" fill="#A9D18E"/><text font-family="Comic Sans MS,Comic Sans MS_MSFontService,Arial" font-weight="400" font-size="24" transform="translate(482.163 349)">2<tspan x="20.6162" y="0">3</tspan><tspan x="42.3197" y="0">3</tspan><tspan x="14.642" y="0">,</tspan><tspan x="35.4791" y="0">,</tspan><tspan x="-9.42236" y="0">(</tspan><tspan x="56.7886" y="0">)</tspan><tspan x="-85.3905" y="0">shape=</tspan></text></g></svg>