<svg width="218" height="166" xmlns="http://www.w3.org/2000/svg" xmlns:xlink="http://www.w3.org/1999/xlink" overflow="hidden"><defs><clipPath id="clip0"><path d="M336 208 554 208 554 374 336 374Z" fill-rule="evenodd" clip-rule="evenodd"/></clipPath></defs><g clip-path="url(#clip0)" transform="translate(-336 -208)"><path d="M338.5 218.334C338.5 213.455 342.455 209.5 347.334 209.5L382.667 209.5C387.545 209.5 391.5 213.455 391.5 218.334L391.5 253.667C391.5 258.545 387.545 262.5 382.667 262.5L347.334 262.5C342.455 262.5 338.5 258.545 338.5 253.667Z" stroke="#FFFFFF" stroke-width="1.33333" stroke-miterlimit="8" fill="#C5E0B4" fill-rule="evenodd"/><text fill="#FFFFFF" font-family="Comic Sans MS,Comic Sans MS_MSFontService,sans-serif" font-weight="400" font-size="27" transform="translate(358.064 244)">1</text><path d="M391.5 218.167C391.5 213.38 395.38 209.5 400.167 209.5L434.833 209.5C439.62 209.5 443.5 213.38 443.5 218.167L443.5 253.833C443.5 258.62 439.62 262.5 434.833 262.5L400.167 262.5C395.38 262.5 391.5 258.62 391.5 253.833Z" stroke="#FFFFFF" stroke-width="1.33333" stroke-miterlimit="8" fill="#C5E0B4" fill-rule="evenodd"/><text fill="#FFFFFF" font-family="Comic Sans MS,Comic Sans MS_MSFontService,sans-serif" font-weight="400" font-size="27" transform="translate(408.816 244)">2</text><path d="M443.5 218.334C443.5 213.455 447.455 209.5 452.334 209.5L487.667 209.5C492.545 209.5 496.5 213.455 496.5 218.334L496.5 253.667C496.5 258.545 492.545 262.5 487.667 262.5L452.334 262.5C447.455 262.5 443.5 258.545 443.5 253.667Z" stroke="#FFFFFF" stroke-width="1.33333" stroke-miterlimit="8" fill="#C5E0B4" fill-rule="evenodd"/><text fill="#FFFFFF" font-family="Comic Sans MS,Comic Sans MS_MSFontService,sans-serif" font-weight="400" font-size="27" transform="translate(461.736 244)">3</text><path d="M338.5 271.334C338.5 266.455 342.455 262.5 347.334 262.5L382.667 262.5C387.545 262.5 391.5 266.455 391.5 271.334L391.5 306.667C391.5 311.545 387.545 315.5 382.667 315.5L347.334 315.5C342.455 315.5 338.5 311.545 338.5 306.667Z" stroke="#FFFFFF" stroke-width="1.33333" stroke-miterlimit="8" fill="#F4B183" fill-rule="evenodd"/><text fill="#FFFFFF" font-family="Comic Sans MS,Comic Sans MS_MSFontService,sans-serif" font-weight="400" font-size="27" transform="translate(355.897 297)">5</text><path d="M391.5 271.167C391.5 266.38 395.38 262.5 400.167 262.5L434.833 262.5C439.62 262.5 443.5 266.38 443.5 271.167L443.5 306.833C443.5 311.62 439.62 315.5 434.833 315.5L400.167 315.5C395.38 315.5 391.5 311.62 391.5 306.833Z" stroke="#FFFFFF" stroke-width="1.33333" stroke-miterlimit="8" fill="#F4B183" fill-rule="evenodd"/><text fill="#FFFFFF" font-family="Comic Sans MS,Comic Sans MS_MSFontService,sans-serif" font-weight="400" font-size="27" transform="translate(408.816 297)">6</text><path d="M443.5 271.334C443.5 266.455 447.455 262.5 452.334 262.5L487.667 262.5C492.545 262.5 496.5 266.455 496.5 271.334L496.5 306.667C496.5 311.545 492.545 315.5 487.667 315.5L452.334 315.5C447.455 315.5 443.5 311.545 443.5 306.667Z" stroke="#FFFFFF" stroke-width="1.33333" stroke-miterlimit="8" fill="#F4B183" fill-rule="evenodd"/><text fill="#FFFFFF" font-family="Comic Sans MS,Comic Sans MS_MSFontService,sans-serif" font-weight="400" font-size="27" transform="translate(461.736 297)">7</text><path d="M338.5 324.334C338.5 319.455 342.455 315.5 347.334 315.5L382.667 315.5C387.545 315.5 391.5 319.455 391.5 324.334L391.5 359.667C391.5 364.545 387.545 368.5 382.667 368.5L347.334 368.5C342.455 368.5 338.5 364.545 338.5 359.667Z" stroke="#FFFFFF" stroke-width="1.33333" stroke-miterlimit="8" fill="#9DC3E6" fill-rule="evenodd"/><text fill="#FFFFFF" font-family="Comic Sans MS,Comic Sans MS_MSFontService,sans-serif" font-weight="400" font-size="27" transform="translate(355.897 350)">9</text><path d="M391.5 324.167C391.5 319.38 395.38 315.5 400.167 315.5L434.833 315.5C439.62 315.5 443.5 319.38 443.5 324.167L443.5 359.833C443.5 364.62 439.62 368.5 434.833 368.5L400.167 368.5C395.38 368.5 391.5 364.62 391.5 359.833Z" stroke="#FFFFFF" stroke-width="1.33333" stroke-miterlimit="8" fill="#9DC3E6" fill-rule="evenodd"/><text fill="#FFFFFF" font-family="Comic Sans MS,Comic Sans MS_MSFontService,sans-serif" font-weight="400" font-size="27" transform="translate(402.816 350)">10</text><path d="M443.5 324.334C443.5 319.455 447.455 315.5 452.334 315.5L487.667 315.5C492.545 315.5 496.5 319.455 496.5 324.334L496.5 359.667C496.5 364.545 492.545 368.5 487.667 368.5L452.334 368.5C447.455 368.5 443.5 364.545 443.5 359.667Z" stroke="#FFFFFF" stroke-width="1.33333" stroke-miterlimit="8" fill="#9DC3E6" fill-rule="evenodd"/><text fill="#FFFFFF" font-family="Comic Sans MS,Comic Sans MS_MSFontService,sans-serif" font-weight="400" font-size="27" transform="translate(457.902 350)">11</text><path d="M496.5 218.334C496.5 213.455 500.455 209.5 505.334 209.5L540.667 209.5C545.545 209.5 549.5 213.455 549.5 218.334L549.5 253.667C549.5 258.545 545.545 262.5 540.667 262.5L505.334 262.5C500.455 262.5 496.5 258.545 496.5 253.667Z" stroke="#FFFFFF" stroke-width="1.33333" stroke-miterlimit="8" fill="#C5E0B4" fill-rule="evenodd"/><text fill="#FFFFFF" font-family="Comic Sans MS,Comic Sans MS_MSFontService,sans-serif" font-weight="400" font-size="27" transform="translate(514.655 244)">4</text><path d="M496.5 271.334C496.5 266.455 500.455 262.5 505.334 262.5L540.667 262.5C545.545 262.5 549.5 266.455 549.5 271.334L549.5 306.667C549.5 311.545 545.545 315.5 540.667 315.5L505.334 315.5C500.455 315.5 496.5 311.545 496.5 306.667Z" stroke="#FFFFFF" stroke-width="1.33333" stroke-miterlimit="8" fill="#F4B183" fill-rule="evenodd"/><text fill="#FFFFFF" font-family="Comic Sans MS,Comic Sans MS_MSFontService,sans-serif" font-weight="400" font-size="27" transform="translate(514.655 297)">8</text><path d="M496.5 324.334C496.5 319.455 500.455 315.5 505.334 315.5L540.667 315.5C545.545 315.5 549.5 319.455 549.5 324.334L549.5 359.667C549.5 364.545 545.545 368.5 540.667 368.5L505.334 368.5C500.455 368.5 496.5 364.545 496.5 359.667Z" stroke="#FFFFFF" stroke-width="1.33333" stroke-miterlimit="8" fill="#9DC3E6" fill-rule="evenodd"/><text fill="#FFFFFF" font-family="Comic Sans MS,Comic Sans MS_MSFontService,sans-serif" font-weight="400" font-size="27" transform="translate(508.655 350)">12</text></g></svg>